{"title":"Castle_S03_E12_720p_TTL","uid":6095686,"size":1266324901,"categoryP":"video","categoryS":"hd___tv_shows","magnet":"?xt=urn:btih:aef8ec5e57dc1ac5d6b23aed6c4a735214a86965&amp;dn=Castle_S03_E12_720p_TTL&amp;tr=udp%3A%2F%2Ftracker.openbittorrent.com%3A80&amp;tr=udp%3A%2F%2Fopen.demonii.com%3A1337&amp;tr=udp%3A%2F%2Ftracker.coppersurfer.tk%3A6969&amp;tr=udp%3A%2F%2Fexodus.desync.com%3A6969","seeders":0,"leechers":1,"uploader":"thetorrentlord","files":2,"time":1294763716,"description":"Castle_S03_E12_720p_TTL.avi\nFormat                           : AVI\nFormat/Info                      : Audio Video Interleave\nFormat profile                   : OpenDML\nFile size                        : 1.18 GiB\nDuration                         : 41mn 3s\nOverall bit rate                 : 4 112 Kbps\nMovie name                       : Castle_S03_E12_720p_TTL.mpg\nDirector                         : created.with.SUPER(C).v2009.bld.35\nWriting application              : SUPER(C)   \n\nVideo\nID                               : 0\nFormat                           : MPEG-4 Visual\nFormat profile                   : Simple@L3\nFormat settings, BVOP            : No\nFormat settings, QPel            : No\nFormat settings, GMC             : No warppoints\nFormat settings, Matrix          : Default (H.263)\nCodec ID                         : XVID\nCodec ID/Hint                    : XviD\nDuration                         : 41mn 3s\nBit rate                         : 3 983 Kbps\nWidth                            : 1 280 pixels\nHeight                           : 720 pixels\nDisplay aspect ratio             : 16:9\nFrame rate                       : 29.970 fps\nColor space                      : YUV\nChroma subsampling               : 4:2:0\nBit depth                        : 8 bits\nScan type                        : Progressive\nBits/(Pixel*Frame)               : 0.144\nStream size                      : 1.14 GiB (97%)\nWriting library                  : XviD 1.1.2 (UTC 2006-11-01)\n\nAudio\nID                               : 1\nFormat                           : MPEG Audio\nFormat version                   : Version 1\nFormat profile                   : Layer 3\nMode                             : Joint stereo\nCodec ID                         : 55\nCodec ID/Hint                    : MP3\nDuration                         : 41mn 3s\nBit rate mode                    : Constant\nBit rate                         : 112 Kbps\nChannel(s)                       : 2 channels\nSampling rate                    : 48.0 KHz\nStream size                      : 32.9 MiB (3%)\nAlignment                        : Aligned on interleaves\nInterleave, duration             : 24 ms (0.72 video frame)\nInterleave, preload duration     : 24 ms\n\n","torrent":{"xt":"urn:btih:aef8ec5e57dc1ac5d6b23aed6c4a735214a86965","amp;dn":"Castle_S03_E12_720p_TTL","amp;tr":["udp%3A%2F%2Ftracker.openbittorrent.com%3A80","udp%3A%2F%2Fopen.demonii.com%3A1337","udp%3A%2F%2Ftracker.coppersurfer.tk%3A6969","udp%3A%2F%2Fexodus.desync.com%3A6969"],"infoHash":"aef8ec5e57dc1ac5d6b23aed6c4a735214a86965","infoHashBuffer":{"type":"Buffer","data":[174,248,236,94,87,220,26,197,214,178,58,237,108,74,115,82,20,168,105,101]},"announce":[],"urlList":[]}}